<svg width="1000" height="1000" viewBox="0 0 1000 1000" fill="none" xmlns="http://www.w3.org/2000/svg">
<path d="M725.829 173.04C729.919 176.587 734.343 179.729 739.039 182.422C762.117 195.688 791.118 197.777 816.978 185.514C838.059 175.507 853.059 157.867 860.248 137.452C861.126 134.991 861.879 132.487 862.505 129.949C838.057 108.74 802.464 102.731 771.351 117.483C747.725 128.682 731.73 149.493 725.829 173.04Z" stroke="#1F1A1B" stroke-width="35.8473" stroke-miterlimit="10"/>
<path d="M661.209 115.937C669.67 152.568 696.329 180.298 729.444 191.695C734.267 193.37 739.207 194.688 744.223 195.638C762.717 171.575 770.719 139.734 763.345 107.855C753.639 65.8657 720.09 35.6388 680.315 28.1476C678.909 29.9765 677.58 31.846 676.307 33.7595C660.707 57.0386 654.392 86.4699 661.209 115.937Z" stroke="#1F1A1B" stroke-width="35.8473" stroke-miterlimit="10"/>
<path d="M662.698 122.831C671.159 159.462 697.817 187.192 730.931 198.59C746.518 175.304 752.85 145.871 746.037 116.396C737.566 79.7565 710.909 52.0516 677.796 40.6537C662.185 63.9328 655.877 93.3641 662.698 122.831Z" fill="#00AB84"/>
<path d="M677.796 40.6524C710.91 52.0422 737.567 79.7552 746.038 116.395C752.85 145.878 746.526 175.296 730.931 198.588C735.755 200.263 740.695 201.58 745.712 202.531C764.206 178.467 772.206 146.626 764.834 114.748C755.127 72.7586 721.579 42.5317 681.804 35.0388C680.398 36.8693 679.069 38.7405 677.796 40.6524Z" fill="#00AB84"/>
<g style="mix-blend-mode:multiply" opacity="0.15">
<path d="M677.796 40.6524C710.91 52.0422 737.567 79.7552 746.038 116.395C752.85 145.878 746.526 175.296 730.931 198.588C735.755 200.263 740.695 201.58 745.712 202.531C764.206 178.467 772.206 146.626 764.834 114.748C755.127 72.7586 721.579 42.5317 681.804 35.0388C680.398 36.8693 679.069 38.7405 677.796 40.6524Z" fill="#1D1D1B"/>
</g>
<path d="M725.782 173.141C729.872 176.688 734.297 179.83 738.994 182.523C742.662 172.041 748.377 162.392 755.807 154.139C763.238 145.885 772.234 139.192 782.275 134.446C808.156 122.183 837.135 124.282 860.214 137.538C861.091 135.076 861.845 132.572 862.471 130.035C838.022 108.826 802.43 102.819 771.315 117.568C747.678 128.778 731.685 149.588 725.782 173.141Z" fill="#00AB84"/>
<path d="M662.698 122.831C671.159 159.462 697.817 187.192 730.931 198.59C746.518 175.304 752.85 145.871 746.037 116.396C737.566 79.7565 710.909 52.0516 677.796 40.6537C662.185 63.9328 655.877 93.3641 662.698 122.831Z" fill="#00AB84"/>
<path d="M739.038 182.415C762.115 195.681 791.117 197.77 816.977 185.506C838.057 175.5 853.059 157.86 860.246 137.445C837.171 124.18 808.192 122.081 782.308 134.353C772.271 139.098 763.277 145.791 755.849 154.042C748.421 162.292 742.707 171.937 739.038 182.415Z" fill="#00AB84"/>
<g style="mix-blend-mode:multiply" opacity="0.15">
<path d="M725.782 173.141C729.872 176.688 734.297 179.83 738.994 182.523C742.662 172.041 748.377 162.392 755.807 154.139C763.238 145.885 772.234 139.192 782.275 134.446C808.156 122.183 837.135 124.282 860.214 137.538C861.091 135.076 861.845 132.572 862.471 130.035C838.022 108.826 802.43 102.819 771.315 117.568C747.678 128.778 731.685 149.588 725.782 173.141Z" fill="#1D1D1B"/>
</g>
<path d="M933.94 537.912C933.94 614.676 914.004 686.802 879.031 749.35C877.523 752.051 875.983 754.734 874.411 757.399C799.043 885.718 659.583 971.853 499.999 971.853C260.914 971.853 66.9913 778.509 66.0785 539.627C66.0606 539.05 66.0606 538.488 66.0606 537.912V535.397C66.18 513.584 67.9356 491.811 71.3129 470.26C71.3082 470.255 71.3056 470.248 71.3056 470.242C71.3056 470.235 71.3082 470.228 71.3129 470.223C75.56 443.124 82.3808 416.491 91.6828 390.686C92.2486 389.137 93.2542 387.787 94.5763 386.802C95.8983 385.816 97.4792 385.238 99.1252 385.138C155.832 381.499 203.036 342.934 219.411 290.711C219.96 288.959 221.056 287.43 222.538 286.346C224.02 285.263 225.81 284.683 227.646 284.691H227.711C293.894 284.691 348.15 233.6 353.203 168.691C353.336 166.809 354.088 165.024 355.343 163.614C356.597 162.205 358.283 161.25 360.137 160.9C384.415 156.424 404.315 139.45 412.921 116.905C413.983 114.122 416.356 112.031 419.281 111.48C426.506 110.114 433.798 108.937 441.159 107.947C460.66 105.295 480.319 103.969 499.999 103.979C592.061 103.979 677.395 132.635 747.62 181.525C748.141 181.88 748.663 182.233 749.185 182.625C749.203 182.625 749.203 182.625 749.203 182.643C860.921 261.134 933.94 390.981 933.94 537.912Z" fill="#1F1A1B"/>
<path d="M911.404 539.668C911.404 611.302 892.801 678.606 860.166 736.974C858.756 739.496 857.318 742 855.854 744.485C785.52 864.229 655.382 944.608 506.47 944.608C283.362 944.608 102.4 764.184 101.548 541.268C101.53 540.729 101.53 540.207 101.53 539.668V537.32C101.642 516.965 103.282 496.647 106.434 476.536C106.432 476.534 106.43 476.532 106.428 476.529C106.427 476.526 106.426 476.522 106.426 476.519C106.426 476.516 106.427 476.513 106.428 476.51C106.43 476.507 106.432 476.504 106.434 476.502C110.395 451.211 116.76 426.355 125.442 402.273C125.97 400.828 126.909 399.568 128.142 398.649C129.376 397.729 130.851 397.189 132.386 397.096C185.303 393.7 229.353 357.719 244.635 308.979C245.147 307.345 246.169 305.917 247.552 304.906C248.935 303.895 250.605 303.354 252.318 303.362H252.378C314.155 303.362 364.795 255.667 369.488 195.067C369.763 191.511 372.327 188.508 375.834 187.867C398.563 183.719 417.197 167.837 425.231 146.735C425.705 145.464 426.497 144.337 427.531 143.46C428.565 142.584 429.807 141.987 431.138 141.728C437.881 140.453 444.688 139.355 451.561 138.432C469.759 135.956 488.104 134.718 506.47 134.728C592.382 134.728 672.011 161.468 737.542 207.093C738.03 207.418 738.518 207.753 739.006 208.118C739.024 208.118 739.024 208.118 739.024 208.136C843.265 281.387 911.404 402.555 911.404 539.668Z" fill="#00AB84"/>
<g style="mix-blend-mode:multiply" opacity="0.25">
<path d="M911.96 538.706C911.96 762.337 730.669 943.63 507.038 943.63C367.804 943.63 245.001 873.369 172.115 766.37C242.115 827.172 333.524 863.963 433.509 863.963C653.749 863.963 832.295 685.416 832.295 465.178C832.295 365.186 795.505 273.782 734.701 203.784C841.7 276.669 911.96 399.474 911.96 538.706Z" fill="#1D1D1B"/>
</g>
<g style="mix-blend-mode:multiply" opacity="0.1">
<path d="M734.149 202.408C794.951 272.409 831.742 363.818 831.742 463.803C831.742 684.043 653.195 862.588 432.955 862.588C332.964 862.588 241.561 825.797 171.561 764.995C127.364 700.125 101.527 621.745 101.527 537.314C101.518 516.604 103.087 495.923 106.221 475.451C130.859 611.088 249.57 713.931 392.305 713.931C552.901 713.931 683.084 583.762 683.084 423.153C683.084 280.424 580.24 161.706 444.605 137.068C465.078 133.934 485.759 132.365 506.47 132.374C590.898 132.374 669.278 158.211 734.149 202.408Z" fill="#1D1D1B"/>
</g>
<path d="M398.064 682.522C438.286 682.522 470.892 618.564 470.892 539.668C470.892 460.772 438.286 396.814 398.064 396.814C357.842 396.814 325.236 460.772 325.236 539.668C325.236 618.564 357.842 682.522 398.064 682.522Z" fill="#1F1A1B"/>
<path d="M614.867 682.522C655.089 682.522 687.695 618.564 687.695 539.668C687.695 460.772 655.089 396.814 614.867 396.814C574.646 396.814 542.039 460.772 542.039 539.668C542.039 618.564 574.646 682.522 614.867 682.522Z" fill="#1F1A1B"/>
<path d="M429.494 573.706C437.468 573.706 443.932 558.467 443.932 539.669C443.932 520.87 437.468 505.631 429.494 505.631C421.521 505.631 415.057 520.87 415.057 539.669C415.057 558.467 421.521 573.706 429.494 573.706Z" fill="white"/>
<path d="M646.068 573.706C654.041 573.706 660.505 558.467 660.505 539.669C660.505 520.87 654.041 505.631 646.068 505.631C638.094 505.631 631.63 520.87 631.63 539.669C631.63 558.467 638.094 573.706 646.068 573.706Z" fill="white"/>
<path opacity="0.25" d="M423.166 279.145C438.743 279.145 451.37 266.518 451.37 250.941C451.37 235.364 438.743 222.736 423.166 222.736C407.589 222.736 394.962 235.364 394.962 250.941C394.962 266.518 407.589 279.145 423.166 279.145Z" fill="#EDEDED"/>
<path d="M419.688 271.148C432.768 271.148 443.372 260.544 443.372 247.464C443.372 234.383 432.768 223.78 419.688 223.78C406.607 223.78 396.003 234.383 396.003 247.464C396.003 260.544 406.607 271.148 419.688 271.148Z" stroke="#1E2128" stroke-width="13.7882" stroke-miterlimit="10"/>
<path d="M419.688 271.148C432.768 271.148 443.372 260.544 443.372 247.464C443.372 234.383 432.768 223.78 419.688 223.78C406.607 223.78 396.003 234.383 396.003 247.464C396.003 260.544 406.607 271.148 419.688 271.148Z" fill="#8F582D"/>
<g style="mix-blend-mode:multiply" opacity="0.1">
<path d="M443.37 247.469C443.365 252.863 441.52 258.094 438.14 262.298C434.76 266.502 430.047 269.428 424.78 270.591C419.513 271.754 414.006 271.086 409.17 268.696C404.334 266.306 400.457 262.338 398.182 257.448C402.537 260.011 407.598 261.114 412.625 260.597C417.652 260.079 422.382 257.968 426.124 254.572C429.866 251.176 432.424 246.672 433.425 241.718C434.426 236.765 433.817 231.621 431.687 227.039C435.246 229.13 438.197 232.116 440.246 235.7C442.295 239.283 443.372 243.34 443.37 247.469V247.469Z" fill="#1D1D1B"/>
</g>
<path opacity="0.25" d="M406.363 241.149C409.765 241.149 412.522 238.392 412.522 234.991C412.522 231.589 409.765 228.832 406.363 228.832C402.962 228.832 400.205 231.589 400.205 234.991C400.205 238.392 402.962 241.149 406.363 241.149Z" fill="white"/>
<path opacity="0.25" d="M237.362 450.097C252.938 450.097 265.566 437.47 265.566 421.893C265.566 406.316 252.938 393.689 237.362 393.689C221.785 393.689 209.157 406.316 209.157 421.893C209.157 437.47 221.785 450.097 237.362 450.097Z" fill="#EDEDED"/>
<path d="M233.195 448.19C246.276 448.19 256.88 437.586 256.88 424.505C256.88 411.425 246.276 400.821 233.195 400.821C220.115 400.821 209.511 411.425 209.511 424.505C209.511 437.586 220.115 448.19 233.195 448.19Z" stroke="#1E2128" stroke-width="13.7882" stroke-miterlimit="10"/>
<path d="M233.195 448.19C246.276 448.19 256.88 437.586 256.88 424.505C256.88 411.425 246.276 400.821 233.195 400.821C220.115 400.821 209.511 411.425 209.511 424.505C209.511 437.586 220.115 448.19 233.195 448.19Z" fill="#8F582D"/>
<g style="mix-blend-mode:multiply" opacity="0.1">
<path d="M238.485 401.426C243.742 402.636 248.43 405.603 251.772 409.837C255.115 414.071 256.914 419.319 256.87 424.714C256.827 430.108 254.944 435.327 251.534 439.507C248.123 443.687 243.388 446.578 238.112 447.703C241.585 444.031 243.792 439.344 244.412 434.328C245.032 429.312 244.031 424.23 241.557 419.823C239.083 415.416 235.264 411.915 230.659 409.833C226.054 407.751 220.904 407.195 215.961 408.248C218.795 405.247 222.364 403.038 226.315 401.841C230.266 400.645 234.461 400.501 238.485 401.426V401.426Z" fill="#1D1D1B"/>
</g>
<path opacity="0.25" d="M218.06 440.864C221.461 440.864 224.218 438.106 224.218 434.705C224.218 431.304 221.461 428.546 218.06 428.546C214.658 428.546 211.901 431.304 211.901 434.705C211.901 438.106 214.658 440.864 218.06 440.864Z" fill="white"/>
<path opacity="0.25" d="M256.885 762.131C272.462 762.131 285.089 749.503 285.089 733.927C285.089 718.35 272.462 705.722 256.885 705.722C241.308 705.722 228.68 718.35 228.68 733.927C228.68 749.503 241.308 762.131 256.885 762.131Z" fill="#EDEDED"/>
<path d="M252.365 755.672C265.445 755.672 276.049 745.068 276.049 731.988C276.049 718.907 265.445 708.303 252.365 708.303C239.284 708.303 228.68 718.907 228.68 731.988C228.68 745.068 239.284 755.672 252.365 755.672Z" stroke="#1E2128" stroke-width="13.7882" stroke-miterlimit="10"/>
<path d="M252.365 755.672C265.445 755.672 276.049 745.068 276.049 731.988C276.049 718.907 265.445 708.303 252.365 708.303C239.284 708.303 228.68 718.907 228.68 731.988C228.68 745.068 239.284 755.672 252.365 755.672Z" fill="#8F582D"/>
<g style="mix-blend-mode:multiply" opacity="0.1">
<path d="M274.361 723.208C276.357 728.219 276.583 733.762 275.002 738.919C273.422 744.076 270.129 748.54 265.668 751.574C261.208 754.607 255.846 756.027 250.469 755.601C245.091 755.175 240.02 752.927 236.093 749.228C241.089 749.996 246.199 749.145 250.677 746.802C255.155 744.458 258.767 740.744 260.984 736.203C263.201 731.661 263.908 726.529 263.001 721.557C262.095 716.584 259.622 712.032 255.944 708.565C260.024 709.19 263.869 710.869 267.1 713.437C270.33 716.006 272.834 719.374 274.361 723.208V723.208Z" fill="#1D1D1B"/>
</g>
<path opacity="0.25" d="M235.367 731.498C238.768 731.498 241.526 728.74 241.526 725.339C241.526 721.938 238.768 719.18 235.367 719.18C231.966 719.18 229.208 721.938 229.208 725.339C229.208 728.74 231.966 731.498 235.367 731.498Z" fill="white"/>
<path opacity="0.25" d="M782.812 551.045C798.389 551.045 811.016 538.418 811.016 522.841C811.016 507.264 798.389 494.636 782.812 494.636C767.235 494.636 754.607 507.264 754.607 522.841C754.607 538.418 767.235 551.045 782.812 551.045Z" fill="#EDEDED"/>
<path d="M778.292 544.584C791.372 544.584 801.976 533.98 801.976 520.9C801.976 507.819 791.372 497.216 778.292 497.216C765.211 497.216 754.607 507.819 754.607 520.9C754.607 533.98 765.211 544.584 778.292 544.584Z" stroke="#1E2128" stroke-width="13.7882" stroke-miterlimit="10"/>
<path d="M778.292 544.584C791.372 544.584 801.976 533.98 801.976 520.9C801.976 507.819 791.372 497.216 778.292 497.216C765.211 497.216 754.607 507.819 754.607 520.9C754.607 533.98 765.211 544.584 778.292 544.584Z" fill="#8F582D"/>
<g style="mix-blend-mode:multiply" opacity="0.1">
<path d="M800.29 512.124C802.285 517.135 802.511 522.678 800.931 527.835C799.35 532.993 796.058 537.457 791.597 540.49C787.136 543.523 781.774 544.943 776.397 544.517C771.02 544.091 765.949 541.843 762.022 538.145C767.017 538.911 772.127 538.06 776.604 535.716C781.081 533.371 784.692 529.657 786.908 525.115C789.124 520.574 789.83 515.442 788.923 510.47C788.016 505.499 785.542 500.948 781.865 497.481C785.946 498.104 789.793 499.783 793.025 502.352C796.257 504.92 798.761 508.289 800.29 512.124V512.124Z" fill="#1D1D1B"/>
</g>
<path opacity="0.25" d="M761.294 520.413C764.695 520.413 767.453 517.656 767.453 514.255C767.453 510.853 764.695 508.096 761.294 508.096C757.893 508.096 755.136 510.853 755.136 514.255C755.136 517.656 757.893 520.413 761.294 520.413Z" fill="white"/>
<path opacity="0.25" d="M631.629 850.227C647.206 850.227 659.833 837.6 659.833 822.023C659.833 806.446 647.206 793.818 631.629 793.818C616.052 793.818 603.424 806.446 603.424 822.023C603.424 837.6 616.052 850.227 631.629 850.227Z" fill="#EDEDED"/>
<path d="M631.61 850.625C644.69 850.625 655.294 840.021 655.294 826.941C655.294 813.86 644.69 803.256 631.61 803.256C618.529 803.256 607.926 813.86 607.926 826.941C607.926 840.021 618.529 850.625 631.61 850.625Z" stroke="#1E2128" stroke-width="13.7882" stroke-miterlimit="10"/>
<path d="M631.61 850.625C644.69 850.625 655.294 840.021 655.294 826.941C655.294 813.86 644.69 803.256 631.61 803.256C618.529 803.256 607.926 813.86 607.926 826.941C607.926 840.021 618.529 850.625 631.61 850.625Z" fill="#8F582D"/>
<g style="mix-blend-mode:multiply" opacity="0.1">
<path d="M614.929 810.126C618.762 806.331 623.774 803.955 629.138 803.393C634.503 802.831 639.899 804.116 644.434 807.035C648.97 809.954 652.375 814.332 654.085 819.448C655.796 824.563 655.711 830.109 653.844 835.169C652.595 830.272 649.813 825.903 645.905 822.699C641.996 819.495 637.166 817.625 632.119 817.362C627.072 817.098 622.073 818.456 617.852 821.235C613.632 824.015 610.41 828.071 608.659 832.812C607.636 828.812 607.677 824.614 608.777 820.635C609.877 816.656 611.998 813.033 614.929 810.126V810.126Z" fill="#1D1D1B"/>
</g>
<path opacity="0.25" d="M632.143 851.344C635.545 851.344 638.302 848.587 638.302 845.186C638.302 841.784 635.545 839.027 632.143 839.027C628.742 839.027 625.985 841.784 625.985 845.186C625.985 848.587 628.742 851.344 632.143 851.344Z" fill="white"/>
<path opacity="0.25" d="M688.247 342.005C703.823 342.005 716.451 329.378 716.451 313.801C716.451 298.224 703.823 285.597 688.247 285.597C672.67 285.597 660.042 298.224 660.042 313.801C660.042 329.378 672.67 342.005 688.247 342.005Z" fill="#EDEDED"/>
<path d="M688.03 332.571C701.111 332.571 711.715 321.967 711.715 308.886C711.715 295.806 701.111 285.202 688.03 285.202C674.95 285.202 664.346 295.806 664.346 308.886C664.346 321.967 674.95 332.571 688.03 332.571Z" stroke="#1E2128" stroke-width="13.7882" stroke-miterlimit="10"/>
<path d="M688.03 332.571C701.111 332.571 711.715 321.967 711.715 308.886C711.715 295.806 701.111 285.202 688.03 285.202C674.95 285.202 664.346 295.806 664.346 308.886C664.346 321.967 674.95 332.571 688.03 332.571Z" fill="#8F582D"/>
<g style="mix-blend-mode:multiply" opacity="0.1">
<path d="M705.493 324.886C701.846 328.86 696.952 331.471 691.621 332.289C686.289 333.106 680.838 332.08 676.168 329.38C671.498 326.68 667.889 322.468 665.937 317.44C663.984 312.411 663.806 306.867 665.43 301.724C666.911 306.555 669.898 310.787 673.955 313.801C678.011 316.814 682.925 318.452 687.978 318.475C693.032 318.498 697.96 316.905 702.044 313.928C706.127 310.951 709.152 306.747 710.677 301.929C711.889 305.875 712.048 310.07 711.139 314.097C710.229 318.124 708.283 321.843 705.493 324.886V324.886Z" fill="#1D1D1B"/>
</g>
<path opacity="0.25" d="M686.632 296.848C690.033 296.848 692.791 294.09 692.791 290.689C692.791 287.288 690.033 284.53 686.632 284.53C683.231 284.53 680.473 287.288 680.473 290.689C680.473 294.09 683.231 296.848 686.632 296.848Z" fill="white"/>
<path d="M180.631 529.221C187.145 529.221 192.426 523.94 192.426 517.426C192.426 510.912 187.145 505.631 180.631 505.631C174.117 505.631 168.836 510.912 168.836 517.426C168.836 523.94 174.117 529.221 180.631 529.221Z" fill="#1F2228"/>
<path d="M276.057 645.293C282.571 645.293 287.852 640.013 287.852 633.499C287.852 626.984 282.571 621.704 276.057 621.704C269.543 621.704 264.262 626.984 264.262 633.499C264.262 640.013 269.543 645.293 276.057 645.293Z" fill="#1F2228"/>
<path d="M406.364 846.964C412.878 846.964 418.159 841.684 418.159 835.169C418.159 828.655 412.878 823.375 406.364 823.375C399.849 823.375 394.569 828.655 394.569 835.169C394.569 841.684 399.849 846.964 406.364 846.964Z" fill="#1F2228"/>
<path d="M451.37 831.01C457.885 831.01 463.165 825.729 463.165 819.215C463.165 812.701 457.885 807.42 451.37 807.42C444.856 807.42 439.575 812.701 439.575 819.215C439.575 825.729 444.856 831.01 451.37 831.01Z" fill="#1F2228"/>
<path d="M749.882 730.977C756.396 730.977 761.677 725.696 761.677 719.182C761.677 712.667 756.396 707.387 749.882 707.387C743.368 707.387 738.087 712.667 738.087 719.182C738.087 725.696 743.368 730.977 749.882 730.977Z" fill="#1F2228"/>
<path d="M603.426 260.888C609.94 260.888 615.22 255.607 615.22 249.093C615.22 242.579 609.94 237.298 603.426 237.298C596.911 237.298 591.631 242.579 591.631 249.093C591.631 255.607 596.911 260.888 603.426 260.888Z" fill="#1F2228"/>
<path d="M738.087 452.658C744.601 452.658 749.882 447.377 749.882 440.863C749.882 434.349 744.601 429.068 738.087 429.068C731.573 429.068 726.292 434.349 726.292 440.863C726.292 447.377 731.573 452.658 738.087 452.658Z" fill="#1F2228"/>
<path d="M567.452 282.943C573.967 282.943 579.247 277.662 579.247 271.148C579.247 264.634 573.967 259.353 567.452 259.353C560.938 259.353 555.658 264.634 555.658 271.148C555.658 277.662 560.938 282.943 567.452 282.943Z" fill="#1F2228"/>
</svg>
